<svg width="35" height="35" viewBox="0 0 35 35" fill="none" xmlns="http://www.w3.org/2000/svg">
<mask id="mask0" mask-type="alpha" maskUnits="userSpaceOnUse" x="0" y="0" width="35" height="35">
<path fill-rule="evenodd" clip-rule="evenodd" d="M35 0H0V35H35V0ZM12.5641 24.7163C14.2988 24.7163 15.7051 23.31 15.7051 21.5753C15.7051 19.8405 14.2988 18.4342 12.5641 18.4342C10.8294 18.4342 9.42308 19.8405 9.42308 21.5753C9.42308 23.31 10.8294 24.7163 12.5641 24.7163Z" fill="#C4C4C4"/>
</mask>
<g mask="url(#mask0)">
<path fill-rule="evenodd" clip-rule="evenodd" d="M0 22.4725V7.44043H6.61859C6.61859 7.44043 13.4615 7.44043 13.4615 14.7321C13.4615 22.0238 6.61859 22.4725 6.61859 22.4725H0ZM3.70195 19.2197V10.6941H6.62516C6.62516 10.6941 9.64746 10.6941 9.64746 14.8296C9.64746 18.9652 6.62516 19.2197 6.62516 19.2197H3.70195Z" fill="white"/>
<path d="M19.0705 7.44043H15.7051C15.5529 7.51266 15.7051 19.6119 15.7051 21.6311C15.7051 23.6504 13.9102 24.7722 12.5641 24.7161C11.2179 24.66 10.619 24.2631 9.98393 23.2577C8.85876 23.7702 8.21709 23.9395 7.06726 24.043C8.05087 26.586 10.08 27.7103 12.5641 27.8571C15.0481 28.0039 18.5657 26.9036 19.0705 21.575V7.44043Z" fill="white"/>
<path d="M32.6442 12.152L34.4391 10.0206C33.8782 9.16052 31.8814 7.44043 28.3814 7.44043C24.0064 7.44043 21.7628 10.3571 21.7067 12.9933C21.6618 15.1023 23.2585 16.7887 24.0625 17.3683C25.7078 18.1536 29.2339 19.8138 30.1763 20.1728C31.1186 20.5318 31.3915 21.7433 31.4102 22.3042C31.0176 24.5478 29.8846 24.4468 28.0448 24.7161C26.2051 24.9853 23.8755 23.4073 22.9407 22.5847L20.8654 24.8843C24.0625 27.9693 28.0383 27.8575 28.0448 27.8571C31.822 27.6365 33.5275 26.066 33.9343 25.277C34.2708 24.5478 35 23.8421 35 21.9677C35 19.1071 32.8686 17.574 32.0833 17.144C30.8493 16.6391 28.0561 15.4725 26.7548 14.8443C25.4535 14.2161 25.203 13.0868 25.2404 12.6007C25.3712 11.8528 26.1827 10.3795 28.3814 10.4693C30.5801 10.559 32.1394 11.6285 32.6442 12.152Z" fill="white"/>
</g>
</svg>
